PathFileType	4	(X/Y/Z)	37_1_44_p0_0-467.trc
DataRate	CameraRate	NumFrames	NumMarkers	Units	OrigDataRate	OrigDataStartFrame	OrigNumFrames
60.0	60.0	5	27	m	60.0	0	468
Frame#	Time	RHip			RKnee			RAnkle			RBigToe			RSmallToe			RHeel			LHip			LKnee			LAnkle			LBigToe			LSmallToe			LHeel			Neck			Head			Nose			RShoulder			RElbow			RWrist			RThumb			RIndex			RPinky			LShoulder			LElbow			LWrist			LThumb			LIndex			LPinky			
		X1	Y1	Z1	X2	Y2	Z2	X3	Y3	Z3	X4	Y4	Z4	X5	Y5	Z5	X6	Y6	Z6	X7	Y7	Z7	X8	Y8	Z8	X9	Y9	Z9	X10	Y10	Z10	X11	Y11	Z11	X12	Y12	Z12	X13	Y13	Z13	X14	Y14	Z14	X15	Y15	Z15	X16	Y16	Z16	X17	Y17	Z17	X18	Y18	Z18	X19	Y19	Z19	X20	Y20	Z20	X21	Y21	Z21	X22	Y22	Z22	X23	Y23	Z23	X24	Y24	Z24	X25	Y25	Z25	X26	Y26	Z26	X27	Y27	Z27	
0	0.0	0.3677721533155511	0.6225980926635917	0.5039103170782026	0.3751652877242825	0.8675710995847958	0.9527645123219339	0.3968011275101616	1.0422205133184195	1.3770780608832833	0.33482882107944506	0.8872141735802277	1.4384856873132197	0.40335362909846134	0.8776312058374184	1.4326431223957807	0.37767915329059404	1.1647185791112498	1.432902869417992	0.19913065228358093	0.6969585377223405	0.49646923086206374	0.20721940258491167	0.8562872869059155	0.9383059615848333	0.19420743761904968	1.0589776943530684	1.3581555998499484	0.16625179464418408	0.8709078605682247	1.4103128077702567	0.11728176526865755	0.9352810498164379	1.4101709627724668	0.20824748915419325	1.1378001941872697	1.4262556638368573	0.283688837260091	0.5477885379866546	-0.03455121903658595	0.27573794920871547	0.4403080303408247	-0.25058064630690907	0.2651670156763261	0.3732639137100686	-0.11230632180504858	0.432986139336732	0.5207609435369103	0.07574433011810885	0.4496505777882808	0.5440249083887719	0.3452898187586285	0.31232995200144514	0.5298330258879309	0.5512509466129671	0.2219657652263837	0.5395305046146603	0.61830642726146	0.22518085042994615	0.5696024771472883	0.6355615090002755	0.24937283028820706	0.544957947190866	0.6395962898572682	0.13808568841161067	0.6508801827396039	0.030702199339214364	0.106061001619018	0.6390932340752656	0.2927476764653194	0.18799768988183108	0.5097525754965805	0.5239090542655018	0.23169554918040144	0.5494616143125508	0.6113268688080568	0.23793022318278553	0.5277881506123009	0.6262078110166625	0.23101586378596434	0.5807905423852316	0.6255436498103203
1	0.016666666666666666	0.36730713202372917	0.622817669108953	0.4963699620164276	0.3676418152925048	0.8525260224832006	0.9508354078868707	0.39885936290368534	1.023634605015172	1.3720445355972428	0.33478138769598054	0.8875920170174021	1.4383807210797939	0.40313046796386026	0.8771556607850584	1.4323071155335603	0.3805297238035734	1.139320330220466	1.4164125596059975	0.19835337729036664	0.6981467403117039	0.5002861509856915	0.20392349324779477	0.8722394381292051	0.9407448119760528	0.19422826686190717	1.0580607970383702	1.3578106774661944	0.17116946601281793	0.8720530165246125	1.410568582834526	0.11729059833489809	0.9353093410804816	1.4101532024674441	0.21114296429774945	1.1162506042107811	1.4197523595313124	0.28336626771025963	0.5456631686853559	-0.038107261725017084	0.27771674185036554	0.4280276351216244	-0.24770868490092882	0.2651767840361305	0.3733175589523227	-0.11229180329960527	0.4327650816772415	0.5204165952391854	0.0758399692802252	0.45158848290651404	0.532855068234571	0.34898535656671525	0.3167339184164406	0.5311590491543177	0.5513676501564407	0.22292579447879896	0.529028244436765	0.6176960082080859	0.23186291006885396	0.5571014916485961	0.6348002590205226	0.2500043542118035	0.5470313709879192	0.6434602391371731	0.1379824319685804	0.6511004826281842	0.0345006924518174	0.10612050206946504	0.6393427951365925	0.29686977227276495	0.19350653186509748	0.5110184688572101	0.5273984736906103	0.23183282445213477	0.5492482893438843	0.6118566636906222	0.23810931915056768	0.5268884521132781	0.6299815415943548	0.23381311769383534	0.5675601572762186	0.6249831442225675
2	0.03333333333333333	0.3692052851034254	0.6252729899638105	0.5045983992190125	0.3680913709852844	0.8504097089535582	0.9460015565341319	0.39766331956492396	1.0206265410188309	1.3670056764800769	0.3337441878230087	0.8850923566973999	1.4332290066276911	0.40334486673363373	0.8776829490369	1.4323220416904225	0.38059488178304013	1.1391749904608983	1.416173844548131	0.19946008587924377	0.6993544492812082	0.5049709545612359	0.2069208288625141	0.8554432170686237	0.9380843672721044	0.1941768408099576	1.0592645470668487	1.358155069709557	0.16713757628701362	0.8696418227182335	1.406205460261632	0.11698392502888495	0.9369939829803984	1.406235358589156	0.21178849507385122	1.1195574303923388	1.4161436000482523	0.2875276227084607	0.5454370924194779	-0.03821516940073869	0.27776981416627683	0.42780761863776773	-0.24776490037303434	0.265075044245351	0.37317909402075367	-0.11229987647453529	0.4354369087088654	0.5335468080390349	0.07074380046241305	0.4515913159181037	0.5328024985890608	0.34901711372070643	0.3120151108724498	0.5203216215196456	0.5509673646594403	0.22280361036146304	0.5290975757107915	0.617905038013189	0.2250451606475524	0.5689299659015191	0.6356013482634127	0.24914918366083375	0.5446042928627184	0.6393907139534553	0.13798887306977556	0.6513815784066824	0.03466867195808282	0.10612759881393624	0.6393009519665102	0.29392200648980926	0.19404394682399367	0.5108533863357593	0.5273324457210462	0.23182141433352785	0.5493990036672071	0.6118859487065771	0.2349177193727557	0.5383804412128259	0.6268164277439422	0.2313315142404829	0.5806289399530798	0.6255087671660596
3	0.05	0.36903506135552205	0.6250038539000857	0.5044402518257278	0.3681795455044332	0.8504121463664239	0.9460469550115284	0.3976401032935395	1.0205491441287593	1.36705828318489	0.3335518612754473	0.8844752817335259	1.4332516450524209	0.40304853768076543	0.8769337901944128	1.4322587603610404	0.38053676614379445	1.139075878799342	1.4161902913512388	0.19920359892831238	0.6958271202760615	0.49711393203015697	0.20695943513522486	0.8556970345847845	0.9381838318254715	0.19419102800271276	1.0588094142227924	1.3579864522968925	0.16707634443972907	0.8694204268661794	1.406162640604702	0.11690309329998087	0.9367471897042396	1.406146640755951	0.21171825744192915	1.1193432043589446	1.4160575905833743	0.28757160798059844	0.545455572866879	-0.038273696438096555	0.27786719327399234	0.42781238940344124	-0.2478302700560589	0.2610001250746812	0.362987403055738	-0.1101353090943338	0.4354572824258832	0.5336578828858689	0.07073058944554436	0.4516748067405583	0.5328827441400326	0.3490383265021795	0.3120360572661986	0.5205202719425782	0.550966121847905	0.22681497431677639	0.5406912716070105	0.6186888760186232	0.22520310341156102	0.5693608449383936	0.6357788129130952	0.2498921081887753	0.5470395123629106	0.6434843983355025	0.13795679017016724	0.6514722483646731	0.03461416838564456	0.10628660660704808	0.6388729050007497	0.29086459172875356	0.19418852691559035	0.5104543457189397	0.5272663875617413	0.23194132891699726	0.550142818219187	0.6116001662151722	0.2350588884470064	0.5391423299240592	0.6266427344727548	0.23141799279109931	0.5805274535284365	0.6254834326382448
4	0.06666666666666667	0.3684372685651886	0.6254382554357427	0.5079632103635346	0.37300745031809895	0.8652660202174888	0.9526334132567225	0.3976323230477756	1.0205098514677666	1.3670643474743416	0.33365666764954466	0.8846591923864735	1.4332854990520092	0.40326922744320903	0.8775445896983848	1.4324821798879404	0.3805421323027308	1.139024948341649	1.4162908816063253	0.1987060632999889	0.6965792047029197	0.5005655934449121	0.20694267342222447	0.8556868766918834	0.9380920183628162	0.1942517979084649	1.058369267371057	1.3578521095309237	0.16704035793808159	0.8693271007334973	1.4061003097886926	0.11677831163824966	0.9367231227730274	1.4061022183557477	0.2113876004220653	1.1187811804787575	1.4160618660073199	0.2834012951805994	0.5456153675928305	-0.03825910154772098	0.2778273727338906	0.42756542377958573	-0.24779450554348456	0.26097182601200936	0.3628645055914705	-0.11012496685879672	0.4354195209625152	0.5335223485767533	0.07071465342466209	0.45196361386289186	0.5322628677264655	0.345784163442358	0.31674586778311326	0.5313483083674813	0.5514692349157072	0.22483141010768878	0.5543749329409909	0.6195411680989708	0.2253018556340677	0.5699113678980058	0.6357994463518367	0.2499776919267367	0.5472099591012728	0.643548401549725	0.13795170071036783	0.6514549824062539	0.03458875067421891	0.10601531853718128	0.6395444033899818	0.2977694331938348	0.1943083876245151	0.5108314919312789	0.5274273476246385	0.2319649467350657	0.5500177563380466	0.6116943152006545	0.235788780548574	0.5414214435843955	0.6307819899248441	0.23148140025920377	0.5809003021119536	0.625691659230416
